<?xml version="1.0" standalone="no"?>
<!DOCTYPE svg PUBLIC "-//W3C//DTD SVG 20010904//EN"
 "http://www.w3.org/TR/2001/REC-SVG-20010904/DTD/svg10.dtd">
<svg version="1.0" xmlns="http://www.w3.org/2000/svg"
 width="512.000000pt" height="512.000000pt" viewBox="0 0 512.000000 512.000000"
 preserveAspectRatio="xMidYMid meet">
<metadata>
Created by potrace 1.14, written by Peter Selinger 2001-2017
</metadata>
<g transform="translate(0.000000,512.000000) scale(0.100000,-0.100000)"
fill="#000000" stroke="none">
<path d="M2377 5016 c-175 -119 -268 -182 -282 -193 -6 -5 -71 -49 -145 -99
-127 -86 -482 -328 -650 -444 -233 -160 -728 -498 -870 -594 -189 -127 -193
-130 -236 -172 l-33 -31 0 -338 c0 -220 4 -345 11 -359 34 -67 95 -72 184 -16
35 22 66 40 68 40 3 0 5 -616 5 -1370 0 -1514 -4 -1406 63 -1429 22 -8 643
-11 2075 -11 2228 0 2084 -4 2112 56 9 21 12 324 12 1391 0 749 3 1363 5 1363
3 0 33 -18 66 -40 89 -57 152 -52 187 17 7 15 11 127 10 358 -2 313 -3 338
-21 360 -18 23 -83 70 -378 271 -80 54 -195 132 -255 174 -61 41 -255 173
-430 293 -176 120 -376 257 -445 304 -839 574 -838 573 -881 573 -10 0 -88
-47 -172 -104z m843 -568 c85 -58 217 -148 292 -199 76 -52 265 -181 420 -287
156 -106 348 -238 428 -292 80 -54 150 -102 155 -107 6 -4 63 -44 127 -87
l117 -79 -1 -189 c0 -137 -4 -188 -12 -185 -6 3 -137 88 -291 189 -154 101
-413 272 -575 378 -162 106 -394 259 -515 338 -521 344 -634 418 -700 461 -96
62 -117 61 -225 -10 -172 -113 -539 -355 -675 -444 -77 -51 -248 -163 -380
-250 -132 -87 -292 -192 -355 -233 -63 -42 -234 -154 -380 -250 -145 -96 -270
-176 -277 -179 -9 -4 -12 40 -12 184 l0 189 97 66 c53 37 151 103 217 148 66
45 197 134 290 198 94 64 208 142 255 175 47 32 135 92 195 133 61 41 205 140
320 219 116 79 300 205 410 280 110 75 249 169 308 210 l108 73 252 -172 c139
-95 322 -220 407 -278z m-477 -350 c361 -238 571 -376 688 -453 67 -44 128
-84 137 -90 8 -5 88 -58 176 -116 89 -58 194 -127 234 -153 l72 -47 0 -890 c0
-636 3 -897 11 -912 33 -65 108 -76 158 -25 l31 31 0 825 c0 454 2 827 4 830
3 2 57 -31 120 -73 l116 -76 0 -67 c1 -82 1 -2628 0 -2659 l0 -23 -335 0 -335
0 0 1276 c0 1172 -1 1278 -17 1304 -9 16 -27 33 -40 39 -17 8 -378 10 -1214 8
l-1191 -2 -29 -33 -29 -32 0 -1280 0 -1280 -115 0 -115 0 0 900 c0 771 -2 905
-15 929 -35 68 -142 64 -171 -5 -12 -28 -14 -191 -14 -929 l0 -895 -120 0
c-89 0 -120 3 -120 13 -1 15 -1 2649 0 2699 l0 37 225 148 c549 361 631 415
810 533 422 277 724 475 800 526 44 29 86 54 94 54 7 0 90 -51 184 -112z m252
-1688 l-220 -220 -637 0 -638 0 0 220 0 220 857 0 858 0 -220 -220z m625 72
l0 -148 -1057 -1058 -1058 -1057 -3 208 -2 208 997 997 998 998 62 0 63 0 0
-148z m-1266 -713 l-221 -221 -224 1 c-123 0 -266 0 -316 0 l-93 1 0 220 0
220 537 0 538 0 -221 -221z m1266 1 c0 -203 -1 -220 -17 -221 -22 -1 -417 -1
-455 0 -24 1 0 27 193 221 187 186 225 220 250 220 l29 0 0 -220z m-1901 -636
c-117 -118 -215 -214 -216 -214 -2 0 -3 97 -3 215 l0 214 216 0 216 -1 -213
-214z m1901 -30 l0 -243 -590 -1 c-324 0 -590 2 -590 5 0 2 108 112 240 244
l240 239 350 0 350 0 0 -244z m0 -674 l0 -230 -920 0 c-506 0 -920 2 -920 5 0
2 100 105 223 229 l222 224 698 1 697 1 0 -230z"/>
<path d="M907 2410 c-31 -24 -45 -81 -29 -115 16 -34 56 -57 99 -57 29 0 43 7
66 32 25 28 28 39 24 74 -11 78 -99 114 -160 66z"/>
<path d="M4085 1197 c-17 -14 -28 -36 -32 -63 -5 -36 -1 -45 23 -72 38 -39 81
-47 123 -21 57 35 67 100 22 148 -37 39 -96 43 -136 8z"/>
</g>
</svg>
